<svg
      xmlns="http://www.w3.org/2000/svg"
      width="420.258"
      height="379.544"
      viewBox="0 0 420.258 379.544"
    >
      <g transform="translate(-61.937 -36.5)">
       
        <g data-name="Alexander John" transform="translate(367.541 126.754)">
          <rect
            width="109.797"
            height="151.624"
            fill="#c2cae3"
            data-name="Rectangle 821"
            opacity=".187"
            rx="10"
            transform="translate(0 4.357)"
          />
          <rect
            width="109.797"
            height="151.624"
            fill="#fcfcff"
            stroke="#e0e3ec"
            data-name="Rectangle 821"
            rx="10"
            transform="translate(4.356)"
          />
          <g data-name="Alexander John">
            <g data-name="Alexander John">
              <path
                fill="#333"
                d="M49.672 75.086a4.019 4.019 0 0 1-1.867-.427 2.81 2.81 0 0 1-1.22-1.135l1.122-.891a2.271 2.271 0 0 0 2.013 1.11 1.62 1.62 0 0 0 1.013-.3.932.932 0 0 0 .39-.775q0-.866-1.232-1.318l-.952-.342a3.565 3.565 0 0 1-1.549-.97 2.2 2.2 0 0 1-.5-1.47 2.2 2.2 0 0 1 .793-1.767 3.045 3.045 0 0 1 2.023-.669 3.224 3.224 0 0 1 2.623 1.183l-.988.964a2.066 2.066 0 0 0-1.647-.805 1.69 1.69 0 0 0-.97.268.84.84 0 0 0-.4.732.9.9 0 0 0 .3.714 3.421 3.421 0 0 0 1.019.531l.878.329a3.679 3.679 0 0 1 1.525.988 2.245 2.245 0 0 1 .512 1.549 2.269 2.269 0 0 1-.805 1.812 3.1 3.1 0 0 1-2.081.689Zm6.783-.024a2.723 2.723 0 0 1-2.092-.927 3.208 3.208 0 0 1-.848-2.245 3.208 3.208 0 0 1 .848-2.245 2.723 2.723 0 0 1 2.092-.927 2.436 2.436 0 0 1 1.147.274 2.252 2.252 0 0 1 .804.665v-.817h1.342v6.1h-1.342v-.817a2.252 2.252 0 0 1-.805.665 2.436 2.436 0 0 1-1.146.274Zm-1.062-1.781a1.8 1.8 0 0 0 2.611 0 1.986 1.986 0 0 0 .512-1.391 1.986 1.986 0 0 0-.51-1.389 1.8 1.8 0 0 0-2.611 0 1.986 1.986 0 0 0-.512 1.391 1.986 1.986 0 0 0 .51 1.389Zm6.746 1.659v-4.9h-1.268v-1.2h1.269v-1.025a2.024 2.024 0 0 1 .586-1.543 2.093 2.093 0 0 1 1.5-.555 3.158 3.158 0 0 1 1 .146v1.2a1.818 1.818 0 0 0-.72-.122 1.087 1.087 0 0 0-.781.238 1.086 1.086 0 0 0-.244.8v.866h1.745v1.2h-1.744v4.9Zm6.759.122a3.109 3.109 0 0 1-2.292-.891 3.078 3.078 0 0 1-.9-2.281 3.1 3.1 0 0 1 3.184-3.172 2.819 2.819 0 0 1 2.94 3.026q0 .244-.012.439h-4.786a1.672 1.672 0 0 0 .573 1.2 2.1 2.1 0 0 0 3.05-.47l1.025.732a3.033 3.033 0 0 1-2.782 1.417Zm-1.805-3.855h3.392a1.549 1.549 0 0 0-.567-.994 1.676 1.676 0 0 0-1.067-.36 1.89 1.89 0 0 0-1.128.354 1.572 1.572 0 0 0-.63 1ZM37.899 90.625v-6.1h1.342v.83a2 2 0 0 1 1.854-.952 2.184 2.184 0 0 1 1.7.7 2.645 2.645 0 0 1 .634 1.854v3.672h-1.346v-3.456a1.728 1.728 0 0 0-.342-1.141 1.145 1.145 0 0 0-.927-.409 1.411 1.411 0 0 0-1.135.525 2.236 2.236 0 0 0-.439 1.476v3Zm9.43.122a2.085 2.085 0 0 1-1.659-.7 2.753 2.753 0 0 1-.61-1.873v-3.649h1.346v3.428a1.875 1.875 0 0 0 .317 1.153 1.063 1.063 0 0 0 .9.421 1.3 1.3 0 0 0 1.086-.518 2.373 2.373 0 0 0 .4-1.482v-3h1.342v6.1h-1.345v-.83a1.882 1.882 0 0 1-1.777.95Zm12.7-.122v-3.424a2.088 2.088 0 0 0-.274-1.159.91.91 0 0 0-.811-.415 1.25 1.25 0 0 0-1.037.5 2.339 2.339 0 0 0-.415 1.4v3.1H56.15v-3.426a2.088 2.088 0 0 0-.274-1.159.91.91 0 0 0-.811-.415 1.269 1.269 0 0 0-1.067.525 2.4 2.4 0 0 0-.4 1.476v3h-1.34v-6.1H53.6v.83a2.07 2.07 0 0 1 3.623.256 1.928 1.928 0 0 1 .787-.891 2.229 2.229 0 0 1 1.165-.317 1.993 1.993 0 0 1 1.61.7 2.823 2.823 0 0 1 .586 1.879v3.648Zm6.368.122a2.472 2.472 0 0 1-1.153-.274 2.241 2.241 0 0 1-.811-.665v.817h-1.342v-9.15h1.342v3.867a2.241 2.241 0 0 1 .811-.665 2.472 2.472 0 0 1 1.153-.274 2.723 2.723 0 0 1 2.092.927 3.4 3.4 0 0 1 0 4.489 2.723 2.723 0 0 1-2.092.928Zm-.244-1.22a1.69 1.69 0 0 0 1.305-.561 2.144 2.144 0 0 0 0-2.782 1.813 1.813 0 0 0-2.623 0 2.144 2.144 0 0 0 0 2.782 1.7 1.7 0 0 0 1.318.561Zm7.308 1.22a3.109 3.109 0 0 1-2.287-.891 3.184 3.184 0 0 1 2.287-5.455 2.819 2.819 0 0 1 2.945 3.028q0 .244-.012.439h-4.8a1.672 1.672 0 0 0 .573 1.2 2.1 2.1 0 0 0 3.05-.47l1.025.732a3.033 3.033 0 0 1-2.781 1.417Zm-1.806-3.855h3.392a1.549 1.549 0 0 0-.567-.994 1.676 1.676 0 0 0-1.067-.36 1.89 1.89 0 0 0-1.128.354 1.572 1.572 0 0 0-.63 1Zm6.124 3.733v-6.1h1.342v1.086a1.606 1.606 0 0 1 .628-.83 1.691 1.691 0 0 1 .982-.317 2.346 2.346 0 0 1 .525.049v1.379a1.9 1.9 0 0 0-.671-.11 1.322 1.322 0 0 0-1.037.494 2.032 2.032 0 0 0-.427 1.372v2.977Z"
                data-name="Alexander John"
              />
              <g
                fill="#e8f5f3"
                stroke="#fff"
                stroke-width="4"
                data-name="Ellipse 6459"
                transform="translate(41.826 13.942)"
              >
                <circle cx="17.428" cy="17.428" r="17.428" stroke="none" />
                <circle cx="17.428" cy="17.428" r="19.428" fill="none" />
              </g>
              <path
                fill="#0A70B9"
                d="m57.957 33.119-1.99-1.99a.638.638 0 0 0-.894 0 .653.653 0 0 0-.2.477.62.62 0 0 0 .183.457l2.475 2.478a.641.641 0 0 0 .853 0l4.874-4.874a.608.608 0 0 0 .183-.447.642.642 0 0 0-.2-.467.62.62 0 0 0-.457-.183.653.653 0 0 0-.477.2Zm1.2 6.276a8.24 8.24 0 0 1-3.209-.619 7.863 7.863 0 0 1-4.3-4.3 8.24 8.24 0 0 1-.617-3.205 8.187 8.187 0 0 1 .619-3.189 7.929 7.929 0 0 1 1.717-2.579 8.1 8.1 0 0 1 5.788-2.356 8.059 8.059 0 0 1 8.124 8.124 8.1 8.1 0 0 1-2.356 5.788 7.929 7.929 0 0 1-2.579 1.716 8.187 8.187 0 0 1-3.189.62Z"
              />
            </g>
            <g data-name="Pay Now" transform="translate(19.17 109.796)">
              <rect
                width="79.298"
                height="27.885"
                fill="#0A70B9"
                data-name="Rectangle 822"
                rx="10"
              />
              <path
                fill="#fff"
                d="M18.949 18.892a3.6 3.6 0 0 1-2.68-1.033 3.754 3.754 0 0 1-1.02-2.757V9.455h1.532v5.673a2.309 2.309 0 0 0 .588 1.686 2.111 2.111 0 0 0 1.582.6 2.09 2.09 0 0 0 1.575-.6 2.325 2.325 0 0 0 .582-1.686V9.455h1.529v5.647a3.732 3.732 0 0 1-1.033 2.751 3.58 3.58 0 0 1-2.655 1.039Zm5.529-.157V12.2h1.438v.889a2.143 2.143 0 0 1 1.987-1.02 2.34 2.34 0 0 1 1.817.745 2.834 2.834 0 0 1 .68 1.987v3.934h-1.437v-3.7a1.851 1.851 0 0 0-.366-1.222 1.227 1.227 0 0 0-.993-.438 1.512 1.512 0 0 0-1.216.562 2.4 2.4 0 0 0-.471 1.582v3.215Zm7.83 0v-9.28h3.2a2.763 2.763 0 0 1 1.993.745 2.421 2.421 0 0 1 .778 1.817 2.1 2.1 0 0 1-.863 1.791 2.213 2.213 0 0 1 1.49 2.209 2.532 2.532 0 0 1-.843 1.941 3.047 3.047 0 0 1-2.15.778Zm1.529-1.4h2.039a1.637 1.637 0 0 0 1.137-.366 1.349 1.349 0 0 0 0-1.928 1.618 1.618 0 0 0-1.137-.373h-2.037Zm0-3.974h1.595a1.353 1.353 0 0 0 .98-.353 1.278 1.278 0 0 0 0-1.791 1.325 1.325 0 0 0-.98-.366h-1.593Zm6.512 5.374V8.932h1.438v9.8Zm8.758-.85a3.425 3.425 0 0 1-5.858-2.417 3.425 3.425 0 1 1 6.849 0 3.291 3.291 0 0 1-.993 2.414Zm-2.431-.353a1.84 1.84 0 0 0 1.405-.595 2.073 2.073 0 0 0 .556-1.47 2.073 2.073 0 0 0-.556-1.47 1.973 1.973 0 0 0-2.823 0 2.072 2.072 0 0 0-.556 1.47 2.073 2.073 0 0 0 .556 1.47 1.855 1.855 0 0 0 1.416.596Zm7.856 1.333a3.367 3.367 0 0 1-2.464-.974 3.269 3.269 0 0 1-.987-2.425 3.269 3.269 0 0 1 .987-2.425 3.367 3.367 0 0 1 2.464-.974 3.443 3.443 0 0 1 1.81.484 3.249 3.249 0 0 1 1.235 1.32l-1.255.68a2.034 2.034 0 0 0-.719-.837 2 2 0 0 0-2.5.281 2.059 2.059 0 0 0-.562 1.47 2.059 2.059 0 0 0 .562 1.47 2 2 0 0 0 2.5.281 2.034 2.034 0 0 0 .719-.837l1.255.68a3.249 3.249 0 0 1-1.235 1.32 3.443 3.443 0 0 1-1.812.487Zm8.928-.131-3.126-3.152v3.15h-1.438v-9.8h1.438v5.75l2.5-2.483h1.815l-2.917 2.916 3.568 3.621Z"
                data-name="Pay Now"
              />
            </g>
          </g>
        </g>
        <g transform="translate(62.437 37)">
          <rect
            width="110.668"
            height="134.196"
            fill="#c2cae3"
            data-name="Rectangle 821"
            opacity=".187"
            rx="10"
            transform="translate(4.358 4.357)"
          />
          <rect
            width="110.668"
            height="134.196"
            fill="#fcfcff"
            stroke="#e0e3ec"
            data-name="Rectangle 821"
            rx="10"
          />
          <g data-name="Successfuly">
            <path
              fill="#333"
              d="M30.972 74.216a4.019 4.019 0 0 1-1.867-.427 2.81 2.81 0 0 1-1.22-1.135l1.122-.891a2.271 2.271 0 0 0 2.01 1.106 1.62 1.62 0 0 0 1.013-.3.932.932 0 0 0 .39-.775q0-.866-1.232-1.318l-.952-.342a3.565 3.565 0 0 1-1.549-.97 2.2 2.2 0 0 1-.5-1.47 2.2 2.2 0 0 1 .793-1.775 3.045 3.045 0 0 1 2.025-.665 3.224 3.224 0 0 1 2.623 1.183l-.988.964a2.066 2.066 0 0 0-1.647-.805 1.69 1.69 0 0 0-.97.268.84.84 0 0 0-.4.732.9.9 0 0 0 .3.714 3.421 3.421 0 0 0 1.019.531l.878.329a3.679 3.679 0 0 1 1.525.988 2.245 2.245 0 0 1 .512 1.549 2.269 2.269 0 0 1-.805 1.812 3.1 3.1 0 0 1-2.08.697Zm5.551 2.4h-1.342v-8.647h1.342v.817a2.241 2.241 0 0 1 .811-.665 2.472 2.472 0 0 1 1.153-.274 2.723 2.723 0 0 1 2.092.927 3.208 3.208 0 0 1 .848 2.245 3.208 3.208 0 0 1-.848 2.245 2.723 2.723 0 0 1-2.092.927 2.472 2.472 0 0 1-1.153-.274 2.241 2.241 0 0 1-.811-.665Zm1.72-3.648a1.69 1.69 0 0 0 1.305-.561 1.986 1.986 0 0 0 .512-1.391 1.986 1.986 0 0 0-.512-1.391 1.69 1.69 0 0 0-1.306-.556 1.7 1.7 0 0 0-1.318.561 1.986 1.986 0 0 0-.507 1.389 1.986 1.986 0 0 0 .512 1.391 1.7 1.7 0 0 0 1.313.559Zm7.051 1.22a2.723 2.723 0 0 1-2.092-.927 3.208 3.208 0 0 1-.848-2.245 3.208 3.208 0 0 1 .848-2.245 2.723 2.723 0 0 1 2.092-.927 2.436 2.436 0 0 1 1.147.274 2.252 2.252 0 0 1 .805.665v-.814h1.342v6.1h-1.342v-.817a2.252 2.252 0 0 1-.805.665 2.436 2.436 0 0 1-1.147.274Zm-1.061-1.781a1.69 1.69 0 0 0 1.305.561 1.69 1.69 0 0 0 1.305-.561 1.986 1.986 0 0 0 .512-1.391 1.986 1.986 0 0 0-.512-1.391 1.69 1.69 0 0 0-1.305-.556 1.69 1.69 0 0 0-1.305.561 1.986 1.986 0 0 0-.516 1.389 1.986 1.986 0 0 0 .516 1.391Zm13.944 1.662v-3.428a2.088 2.088 0 0 0-.274-1.159.91.91 0 0 0-.812-.413 1.25 1.25 0 0 0-1.037.5 2.339 2.339 0 0 0-.415 1.4v3.1h-1.342v-3.428a2.088 2.088 0 0 0-.274-1.159.91.91 0 0 0-.812-.413 1.269 1.269 0 0 0-1.067.525 2.4 2.4 0 0 0-.397 1.475v3h-1.341v-6.1h1.341v.83a1.872 1.872 0 0 1 1.732-.952 1.881 1.881 0 0 1 1.892 1.208 1.928 1.928 0 0 1 .787-.886 2.229 2.229 0 0 1 1.165-.317 1.993 1.993 0 0 1 1.61.7 2.823 2.823 0 0 1 .584 1.869v3.648Zm10.833 0v-3.428a2.088 2.088 0 0 0-.274-1.159.91.91 0 0 0-.812-.413 1.25 1.25 0 0 0-1.037.5 2.339 2.339 0 0 0-.415 1.4v3.1H65.13v-3.428a2.088 2.088 0 0 0-.274-1.159.91.91 0 0 0-.811-.413 1.269 1.269 0 0 0-1.067.525 2.4 2.4 0 0 0-.4 1.476v3h-1.339v-6.101h1.342v.83a1.872 1.872 0 0 1 1.736-.952 1.881 1.881 0 0 1 1.887 1.208 1.928 1.928 0 0 1 .787-.886 2.229 2.229 0 0 1 1.165-.317 1.993 1.993 0 0 1 1.61.7 2.823 2.823 0 0 1 .586 1.879v3.638Zm5.819.122a3.109 3.109 0 0 1-2.287-.891 3.078 3.078 0 0 1-.9-2.281 3.083 3.083 0 0 1 .9-2.263 3.081 3.081 0 0 1 2.281-.909 2.911 2.911 0 0 1 2.1.805 2.938 2.938 0 0 1 .836 2.22q0 .244-.012.439h-4.784a1.672 1.672 0 0 0 .573 1.2 1.915 1.915 0 0 0 1.305.457 1.912 1.912 0 0 0 1.745-.927l1.025.732a3.033 3.033 0 0 1-2.782 1.418Zm-1.805-3.855h3.393a1.549 1.549 0 0 0-.567-.994 1.676 1.676 0 0 0-1.067-.36 1.89 1.89 0 0 0-1.128.354 1.572 1.572 0 0 0-.631 1Zm6.124 3.733v-6.1h1.342v1.086a1.606 1.606 0 0 1 .628-.83 1.691 1.691 0 0 1 .982-.317 2.346 2.346 0 0 1 .525.049v1.379a1.9 1.9 0 0 0-.671-.11 1.322 1.322 0 0 0-1.037.494 2.032 2.032 0 0 0-.427 1.372v2.977Z"
              data-name="Successfuly"
            />
            <g data-name="Group 121569">
              <g
                fill="#fbcfdb"
                stroke="#fff"
                stroke-width="4"
                data-name="Ellipse 6382"
                transform="translate(40.074 16.161)"
              >
                <circle cx="15.377" cy="15.377" r="15.377" stroke="none" />
                <circle cx="15.377" cy="15.377" r="17.377" fill="none" />
              </g>
              <path
                fill="#FF9600"
                d="M48.614 37.408a.467.467 0 0 1-.424-.245.445.445 0 0 1 0-.49l6.329-10.933a.49.49 0 0 1 .849 0L61.7 36.674a.445.445 0 0 1 0 .49.467.467 0 0 1-.424.245Zm6.4-7.376a.474.474 0 0 0-.49.49v2.673a.49.49 0 1 0 .979 0v-2.674a.474.474 0 0 0-.49-.49Zm0 5.467a.474.474 0 1 0-.351-.139.476.476 0 0 0 .346.135Z"
              />
            </g>
            <g transform="translate(13.942 92.368)">
              <rect
                width="82.783"
                height="27.885"
                fill="#FF9600"
                data-name="Rectangle 822"
                rx="10"
              />
              <path
                fill="#fff"
                d="M25.576 18.735v-9.28h3.2a2.763 2.763 0 0 1 1.993.745 2.421 2.421 0 0 1 .778 1.817 2.1 2.1 0 0 1-.863 1.791 2.213 2.213 0 0 1 1.49 2.209 2.532 2.532 0 0 1-.843 1.941 3.047 3.047 0 0 1-2.15.778Zm1.529-1.4h2.039a1.637 1.637 0 0 0 1.137-.366 1.349 1.349 0 0 0 0-1.928 1.618 1.618 0 0 0-1.137-.373h-2.039Zm0-3.974H28.7a1.353 1.353 0 0 0 .98-.353 1.278 1.278 0 0 0 0-1.791 1.325 1.325 0 0 0-.98-.366h-1.595Zm6.509 5.372V8.932h1.438v9.8Zm8.758-.85a3.5 3.5 0 0 1-4.869-.007 3.281 3.281 0 0 1-.987-2.412 3.37 3.37 0 0 1 3.425-3.4 3.37 3.37 0 0 1 3.425 3.4 3.291 3.291 0 0 1-.994 2.418Zm-2.431-.353a1.84 1.84 0 0 0 1.405-.595 2.072 2.072 0 0 0 .556-1.47 2.072 2.072 0 0 0-.556-1.47 1.973 1.973 0 0 0-2.823 0 2.072 2.072 0 0 0-.556 1.47 2.073 2.073 0 0 0 .556 1.47 1.855 1.855 0 0 0 1.418.598Zm7.856 1.333a3.367 3.367 0 0 1-2.464-.974 3.269 3.269 0 0 1-.987-2.425 3.269 3.269 0 0 1 .987-2.425 3.367 3.367 0 0 1 2.464-.974 3.443 3.443 0 0 1 1.81.484 3.249 3.249 0 0 1 1.235 1.32l-1.255.68a2.034 2.034 0 0 0-.719-.837 2 2 0 0 0-2.5.281 2.059 2.059 0 0 0-.562 1.47 2.059 2.059 0 0 0 .562 1.47 2 2 0 0 0 2.5.281 2.034 2.034 0 0 0 .719-.837l1.255.68a3.249 3.249 0 0 1-1.235 1.32 3.443 3.443 0 0 1-1.81.489Zm8.928-.131-3.125-3.15v3.15h-1.438v-9.8H53.6v5.75l2.5-2.483h1.817l-2.918 2.916 3.568 3.621Z"
                data-name="Continue"
              />
            </g>
          </g>
        </g>
        
        <g data-name="Group 93064">
          <g
            fill="#ede5f3"
            stroke="#fff"
            stroke-width="4"
            data-name="Ellipse 6384"
            transform="translate(361.586 335.534)"
          >
            <circle cx="24.696" cy="24.696" r="24.696" stroke="none" />
            <circle cx="24.696" cy="24.696" r="26.696" fill="none" />
          </g>
          <path
            fill="#7d32a8"
            d="M385.583 367.478a7.3 7.3 0 0 1-6.956-7.326 7.292 7.292 0 0 1 7.318-7.318 7.065 7.065 0 0 1 5.069 2.018 7.147 7.147 0 0 1 2.258 4.973l-1.922-.61a5.387 5.387 0 0 0-1.831-3.249 5.267 5.267 0 0 0-3.57-1.3 5.469 5.469 0 0 0-5.492 5.486 5.283 5.283 0 0 0 1.3 3.554 5.358 5.358 0 0 0 3.246 1.846Zm.366 4.882a11.884 11.884 0 0 1-4.76-.961 12.185 12.185 0 0 1-6.483-6.483 12.266 12.266 0 0 1 0-9.519 12.185 12.185 0 0 1 6.483-6.483 12.266 12.266 0 0 1 9.519 0 12.185 12.185 0 0 1 6.483 6.483 11.884 11.884 0 0 1 .961 4.76q0 .275-.015.549t-.046.549l-1.77-.549v-.554a10.007 10.007 0 0 0-3.02-7.353 10.007 10.007 0 0 0-7.356-3.016 10.007 10.007 0 0 0-7.353 3.02 10.007 10.007 0 0 0-3.016 7.349 10.007 10.007 0 0 0 3.02 7.353 10.007 10.007 0 0 0 7.353 3.02h.549l.549 1.77q-.275.031-.549.046t-.549.015Zm10.068.275-4.881-4.883-1.068 3.234a.46.46 0 0 1-.885-.034l-2.99-9.977a.454.454 0 0 1 .58-.58l9.972 2.995a.46.46 0 0 1 .031.885l-3.231 1.068 4.882 4.882a.445.445 0 0 1 0 .671l-1.739 1.739a.445.445 0 0 1-.671 0Z"
          />
        </g>
        <g data-name="Group 121570">
          <g
            fill="#fbe8de"
            stroke="#fff"
            stroke-width="5"
            data-name="Ellipse 6383"
            transform="rotate(27 -450.029 370.421)"
          >
            <circle cx="24.835" cy="24.835" r="24.835" stroke="none" />
            <circle cx="24.835" cy="24.835" r="27.335" fill="none" />
          </g>
          <path
            fill="#fda16b"
            d="M135.196 279.502a1.846 1.846 0 0 0 2.621-.462 1.882 1.882 0 1 0-3.41-.75 1.822 1.822 0 0 0 .79 1.212Zm-8.337-5.838a1.846 1.846 0 0 0 2.621-.462 1.846 1.846 0 0 0-.46-2.625 1.846 1.846 0 0 0-2.62.462 1.846 1.846 0 0 0 .459 2.625Zm-1.27 10.685a7.831 7.831 0 0 0 3.61 1.379 7.063 7.063 0 0 0 3.769-.552.6.6 0 0 0 .462-.57.822.822 0 0 0-.405-.667l-9.593-6.717a.775.775 0 0 0-.753-.144.623.623 0 0 0-.363.64 7.1 7.1 0 0 0 .757 3.72 7.731 7.731 0 0 0 2.52 2.907Zm-3.618 5.168a13.491 13.491 0 0 1-3.793-3.998 14.047 14.047 0 0 1-1.826-10.367 13.576 13.576 0 0 1 2.218-5.085 13.491 13.491 0 0 1 4.003-3.799 13.934 13.934 0 0 1 4.997-1.906 14.292 14.292 0 0 1 5.342.112 13.576 13.576 0 0 1 5.085 2.217 13.491 13.491 0 0 1 3.792 3.999 13.921 13.921 0 0 1 1.825 10.312 13.577 13.577 0 0 1-2.218 5.085 13.491 13.491 0 0 1-3.998 3.793 14.292 14.292 0 0 1-4.99 1.93 13.934 13.934 0 0 1-5.347-.081 13.577 13.577 0 0 1-5.087-2.216Z"
          />
        </g>
        <rect
          width="241.379"
          height="40.085"
          fill="#c2cae3"
          opacity=".187"
          rx="10"
          transform="translate(203.223 49.806)"
        />
        <rect
          width="241.379"
          height="40.085"
          fill="#fff"
          stroke="#e0e3ec"
          data-name="Rectangle"
          rx="10"
          transform="translate(207.58 43.971)"
        />
        <path
          fill="#bfc5d8"
          d="M229.383 71.215a5.226 5.226 0 0 1-3.995-1.652 5.933 5.933 0 0 1-1.548-4.225v-3.6a5.9 5.9 0 0 1 1.548-4.2 5.226 5.226 0 0 1 3.995-1.653 5.2 5.2 0 0 1 3.974 1.652 5.9 5.9 0 0 1 1.548 4.2v3.6a5.933 5.933 0 0 1-1.548 4.225 5.2 5.2 0 0 1-3.974 1.653Zm-1.945-3.639a2.486 2.486 0 0 0 1.945.816 2.454 2.454 0 0 0 1.934-.816 3.259 3.259 0 0 0 .722-2.238v-3.6a3.219 3.219 0 0 0-.722-2.224 2.469 2.469 0 0 0-1.935-.805 2.5 2.5 0 0 0-1.945.805 3.189 3.189 0 0 0-.732 2.227v3.6a3.229 3.229 0 0 0 .733 2.235Zm15.141 3.639a5.226 5.226 0 0 1-3.995-1.652 5.933 5.933 0 0 1-1.548-4.225v-3.6a5.9 5.9 0 0 1 1.548-4.2 5.226 5.226 0 0 1 3.995-1.652 5.2 5.2 0 0 1 3.974 1.652 5.9 5.9 0 0 1 1.548 4.2v3.6a5.933 5.933 0 0 1-1.548 4.225 5.2 5.2 0 0 1-3.973 1.652Zm-1.945-3.639a2.486 2.486 0 0 0 1.945.816 2.454 2.454 0 0 0 1.935-.816 3.259 3.259 0 0 0 .722-2.238v-3.6a3.219 3.219 0 0 0-.719-2.224 2.469 2.469 0 0 0-1.935-.805 2.5 2.5 0 0 0-1.945.805 3.189 3.189 0 0 0-.732 2.227v3.6a3.229 3.229 0 0 0 .73 2.235Zm15.141 3.639a5.226 5.226 0 0 1-3.995-1.652 5.933 5.933 0 0 1-1.548-4.225v-3.6a5.9 5.9 0 0 1 1.548-4.2 5.226 5.226 0 0 1 3.995-1.652 5.2 5.2 0 0 1 3.974 1.652 5.9 5.9 0 0 1 1.548 4.2v3.6a5.933 5.933 0 0 1-1.548 4.225 5.2 5.2 0 0 1-3.973 1.652Zm-1.945-3.639a2.486 2.486 0 0 0 1.945.816 2.454 2.454 0 0 0 1.935-.816 3.259 3.259 0 0 0 .722-2.238v-3.6a3.219 3.219 0 0 0-.722-2.227 2.469 2.469 0 0 0-1.935-.805 2.5 2.5 0 0 0-1.945.805 3.189 3.189 0 0 0-.732 2.227v3.6a3.229 3.229 0 0 0 .733 2.238Zm19.073 6.755h-2.28a20.6 20.6 0 0 1-2.677-10.039 20.6 20.6 0 0 1 2.679-10.038h2.28a21.7 21.7 0 0 0-2.531 10.039 21.7 21.7 0 0 0 2.53 10.038Zm3.66-3.346V58.96h-3.136l2.09-2.824h3.911v14.849Zm7.7 0V58.96h-3.139l2.093-2.824h3.911v14.849Zm7.7 0V58.96h-3.146l2.091-2.823h3.909v14.848Zm7.254 3.346h-2.28a21.7 21.7 0 0 0 2.531-10.039 21.7 21.7 0 0 0-2.534-10.038h2.283a20.6 20.6 0 0 1 2.677 10.039 20.6 20.6 0 0 1-2.677 10.038Zm9.453-7.822v-2.76h5.981v2.761Zm22.921 1.652v2.823h-10.125v-.983a5.384 5.384 0 0 1 .125-1.171 6.007 6.007 0 0 1 .3-.993 3.946 3.946 0 0 1 .533-.889q.356-.46.606-.753a6.2 6.2 0 0 1 .763-.711q.512-.418.784-.617t.857-.606q.586-.408.816-.575 2.342-1.631 2.342-3.053a1.833 1.833 0 0 0-1.966-1.924 2.28 2.28 0 0 0-1.621.6 1.9 1.9 0 0 0-.617 1.5h-2.88a4.618 4.618 0 0 1 1.474-3.555 5.242 5.242 0 0 1 3.712-1.37 4.961 4.961 0 0 1 3.378 1.213 4.232 4.232 0 0 1 1.391 3.367 5.141 5.141 0 0 1-.763 2.917 9.64 9.64 0 0 1-2.374 2.311l-.753.512q-.607.412-.92.638a6.8 6.8 0 0 0-.7.606 2.048 2.048 0 0 0-.512.711Zm11.984 0v2.823H333.45v-.983a5.384 5.384 0 0 1 .125-1.171 6.007 6.007 0 0 1 .3-.993 3.946 3.946 0 0 1 .533-.889q.356-.46.606-.753a6.2 6.2 0 0 1 .763-.711q.512-.418.784-.617t.857-.606q.586-.408.816-.575 2.342-1.631 2.342-3.053a1.833 1.833 0 0 0-1.959-1.924 2.28 2.28 0 0 0-1.621.6 1.9 1.9 0 0 0-.617 1.5h-2.886a4.618 4.618 0 0 1 1.473-3.555 5.242 5.242 0 0 1 3.712-1.37 4.961 4.961 0 0 1 3.378 1.213 4.232 4.232 0 0 1 1.391 3.367 5.141 5.141 0 0 1-.763 2.917 9.64 9.64 0 0 1-2.374 2.311l-.753.512q-.607.412-.92.638a6.8 6.8 0 0 0-.7.606 2.048 2.048 0 0 0-.512.711Zm11.984 0v2.823h-10.126v-.983a5.382 5.382 0 0 1 .125-1.171 6.006 6.006 0 0 1 .3-.993 3.946 3.946 0 0 1 .533-.889q.356-.46.606-.753a6.2 6.2 0 0 1 .763-.711q.512-.418.784-.617t.857-.606q.586-.408.816-.575 2.342-1.631 2.342-3.053a1.833 1.833 0 0 0-1.966-1.924 2.28 2.28 0 0 0-1.621.6 1.9 1.9 0 0 0-.617 1.5h-2.886a4.618 4.618 0 0 1 1.48-3.555 5.242 5.242 0 0 1 3.712-1.37 4.961 4.961 0 0 1 3.378 1.213 4.232 4.232 0 0 1 1.391 3.367 5.141 5.141 0 0 1-.763 2.917 9.64 9.64 0 0 1-2.374 2.311l-.753.512q-.607.412-.92.638a6.8 6.8 0 0 0-.7.606 2.047 2.047 0 0 0-.512.711Zm11.984 0v2.823h-10.126v-.983a5.383 5.383 0 0 1 .126-1.171 6.006 6.006 0 0 1 .3-.993 3.946 3.946 0 0 1 .533-.889q.356-.46.606-.753a6.2 6.2 0 0 1 .763-.711q.512-.418.784-.617t.857-.606q.586-.408.816-.575 2.342-1.631 2.342-3.053a1.833 1.833 0 0 0-1.966-1.924 2.28 2.28 0 0 0-1.621.6 1.9 1.9 0 0 0-.617 1.5h-2.886a4.618 4.618 0 0 1 1.479-3.555 5.242 5.242 0 0 1 3.712-1.37 4.961 4.961 0 0 1 3.378 1.213 4.232 4.232 0 0 1 1.391 3.367 5.141 5.141 0 0 1-.763 2.917 9.641 9.641 0 0 1-2.374 2.311l-.753.512q-.607.412-.92.638a6.8 6.8 0 0 0-.7.606 2.047 2.047 0 0 0-.512.711Z"
          data-name="Quick Transactions, Secured Privacy"
        />
      </g>
    </svg>