<svg
      xmlns="http://www.w3.org/2000/svg"
      width="942"
      height="942"
      viewBox="0 0 942 942"
    >
      <defs>
        <filter
          id="a"
          width="135"
          height="135"
          x="404"
          y="404"
          filterUnits="userSpaceOnUse"
        >
          <feOffset />
          <feGaussianBlur result="blur" stdDeviation="10" />
          <feFlood flood-opacity=".051" />
          <feComposite in2="blur" operator="in" />
          <feComposite in="SourceGraphic" />
        </filter>
        <filter
          id="b"
          width="73"
          height="73"
          x="674"
          y="370"
          filterUnits="userSpaceOnUse"
        >
          <feOffset />
          <feGaussianBlur result="blur-2" stdDeviation="3" />
          <feFlood flood-color="#fae4ea" flood-opacity=".341" />
          <feComposite in2="blur-2" operator="in" />
          <feComposite in="SourceGraphic" />
        </filter>
        <filter
          id="c"
          width="74"
          height="73"
          x="314"
          y="298"
          filterUnits="userSpaceOnUse"
        >
          <feOffset />
          <feGaussianBlur result="blur-3" stdDeviation="3" />
          <feFlood flood-color="#fda16b" flood-opacity=".18" />
          <feComposite in2="blur-3" operator="in" />
          <feComposite in="SourceGraphic" />
        </filter>
        <filter
          id="d"
          width="74"
          height="74"
          x="600"
          y="520"
          filterUnits="userSpaceOnUse"
        >
          <feOffset />
          <feGaussianBlur result="blur-4" stdDeviation="3" />
          <feFlood flood-color="#0A70B9" flood-opacity=".114" />
          <feComposite in2="blur-4" operator="in" />
          <feComposite in="SourceGraphic" />
        </filter>
        <filter
          id="e"
          width="76"
          height="75"
          x="248"
          y="463"
          filterUnits="userSpaceOnUse"
        >
          <feOffset />
          <feGaussianBlur result="blur-5" stdDeviation="3" />
          <feFlood flood-color="#4bcbae" flood-opacity=".212" />
          <feComposite in2="blur-5" operator="in" />
          <feComposite in="SourceGraphic" />
        </filter>
      </defs>
      <g data-name="Group 121669">
        <g data-name="BG waves" transform="translate(.205)">
          <g
            fill="none"
            stroke="#fff"
            stroke-width="2.5"
            data-name="Ellipse 6376"
            transform="translate(405.795 407)"
          >
            <circle cx="64.5" cy="64.5" r="64.5" stroke="none" />
            <circle cx="64.5" cy="64.5" r="63.25" />
          </g>
          <g
            fill="none"
            stroke="#fff"
            stroke-width="2.5"
            data-name="Ellipse 6377"
            transform="translate(349.795 349)"
          >
            <circle cx="121.5" cy="121.5" r="121.5" stroke="none" />
            <circle cx="121.5" cy="121.5" r="120.25" />
          </g>
          <g
            fill="none"
            stroke="#fff"
            stroke-width="2.5"
            data-name="Ellipse 6378"
            opacity=".8"
            transform="translate(286.795 288)"
          >
            <circle cx="183.5" cy="183.5" r="183.5" stroke="none" />
            <circle cx="183.5" cy="183.5" r="182.25" />
          </g>
          <g
            fill="none"
            stroke="#fff"
            stroke-width="2.5"
            data-name="Ellipse 6388"
            opacity=".6"
            transform="translate(209.795 210)"
          >
            <circle cx="261" cy="261" r="261" stroke="none" />
            <circle cx="261" cy="261" r="259.75" />
          </g>
          <ellipse
            cx="3"
            cy="5"
            fill="#FF9600"
            data-name="Ellipse 6374"
            rx="3"
            ry="5"
            transform="translate(516.795 540)"
          />
          <ellipse
            cx="4"
            cy="3.5"
            fill="#FF9600"
            data-name="Ellipse 6391"
            rx="4"
            ry="3.5"
            transform="translate(278.795 376)"
          />
          <ellipse
            cx="2.5"
            cy="2"
            fill="#4bcbae"
            data-name="Ellipse 6386"
            rx="2.5"
            ry="2"
            transform="translate(443.795 622)"
          />
          <circle
            cx="4"
            cy="4"
            r="4"
            fill="#0A70B9"
            data-name="Ellipse 6379"
            transform="translate(551.795 443)"
          />
          <ellipse
            cx="4"
            cy="3.5"
            fill="#0A70B9"
            data-name="Ellipse 6380"
            rx="4"
            ry="3.5"
            transform="translate(367.795 553)"
          />
          <g
            fill="none"
            stroke="#fff"
            stroke-width="2.5"
            data-name="Ellipse 6389"
            opacity=".4"
            transform="translate(112.795 113)"
          >
            <circle cx="358" cy="358" r="358" stroke="none" />
            <circle cx="358" cy="358" r="356.75" />
          </g>
          <g
            fill="none"
            stroke="#fff"
            stroke-width="2.5"
            data-name="Ellipse 6390"
            opacity=".2"
            transform="translate(-.205)"
          >
            <circle cx="471" cy="471" r="471" stroke="none" />
            <circle cx="471" cy="471" r="469.75" />
          </g>
        </g>
        
        <g data-name="Group 93063">
          <g filter="url(#b)" transform="translate(.005)">
            <circle
              cx="27.5"
              cy="27.5"
              r="27.5"
              fill="#fbcfdb"
              data-name="Ellipse 6382"
              transform="translate(683 379)"
            />
          </g>
          <path
            fill="#FF9600"
            d="M699.137 414.462a.873.873 0 0 1-.792-.457.831.831 0 0 1 0-.914l11.825-20.422a.915.915 0 0 1 1.585 0l11.827 20.422a.831.831 0 0 1 0 .914.873.873 0 0 1-.792.457Zm11.948-13.777a.886.886 0 0 0-.914.914v5a.915.915 0 1 0 1.829 0v-5a.886.886 0 0 0-.914-.914Zm0 10.211a.886.886 0 1 0-.655-.259.888.888 0 0 0 .655.259Z"
          />
        </g>
        <g data-name="Group 93062">
          <g filter="url(#c)" transform="translate(.003 -.001)">
            <ellipse
              cx="28"
              cy="27.5"
              fill="#fbe8de"
              data-name="Ellipse 6383"
              rx="28"
              ry="27.5"
              transform="translate(323 307)"
            />
          </g>
          <path
            fill="#fda16b"
            d="M357.216 333.65a2.078 2.078 0 0 0 2.393-1.803 2.12 2.12 0 1 0-3.806.991 2.052 2.052 0 0 0 1.413.813Zm-11.35-1.594a2.078 2.078 0 0 0 2.395-1.803 2.078 2.078 0 0 0-1.804-2.395 2.078 2.078 0 0 0-2.394 1.805 2.078 2.078 0 0 0 1.804 2.393Zm4.19 11.37a8.818 8.818 0 0 0 4.325-.463 7.953 7.953 0 0 0 3.5-2.481.676.676 0 0 0 .173-.808.925.925 0 0 0-.743-.46l-13.064-1.837a.873.873 0 0 0-.826.24.7.7 0 0 0-.038.827 7.989 7.989 0 0 0 2.66 3.347 8.705 8.705 0 0 0 4.013 1.635Zm-.988 7.03a15.191 15.191 0 0 1-5.853-2.07 15.817 15.817 0 0 1-7.132-9.465 15.287 15.287 0 0 1-.372-6.231 15.191 15.191 0 0 1 2.07-5.852 15.69 15.69 0 0 1 4.037-4.467 16.093 16.093 0 0 1 5.418-2.627 15.287 15.287 0 0 1 6.24-.372 15.191 15.191 0 0 1 5.853 2.071 15.675 15.675 0 0 1 7.098 9.42 15.287 15.287 0 0 1 .372 6.236 15.191 15.191 0 0 1-2.07 5.853 16.093 16.093 0 0 1-4.02 4.484 15.69 15.69 0 0 1-5.406 2.649 15.287 15.287 0 0 1-6.236.376Z"
          />
        </g>
        <g data-name="Group 93064">
          <g filter="url(#d)" transform="translate(.004)">
            <circle
              cx="28"
              cy="28"
              r="28"
              fill="#ede5f3"
              data-name="Ellipse 6384"
              transform="translate(609 529)"
            />
          </g>
          <path
            fill="#0A70B9"
            d="M636.002 564.272a8.22 8.22 0 0 1-7.83-8.245 8.211 8.211 0 0 1 8.242-8.242 7.956 7.956 0 0 1 5.7 2.267 8.048 8.048 0 0 1 2.542 5.6l-2.164-.687a6.066 6.066 0 0 0-2.061-3.659 5.931 5.931 0 0 0-4.02-1.46 6.158 6.158 0 0 0-6.184 6.184 5.949 5.949 0 0 0 1.46 4 6.034 6.034 0 0 0 3.659 2.078Zm.412 5.5a13.381 13.381 0 0 1-5.359-1.087 13.72 13.72 0 0 1-7.3-7.3 13.812 13.812 0 0 1 0-10.719 13.72 13.72 0 0 1 7.3-7.3 13.812 13.812 0 0 1 10.719 0 13.72 13.72 0 0 1 7.3 7.3 13.381 13.381 0 0 1 1.082 5.359q0 .309-.017.618t-.052.618l-1.993-.618v-.618a11.269 11.269 0 0 0-3.4-8.279 11.268 11.268 0 0 0-8.279-3.4 11.268 11.268 0 0 0-8.279 3.4 11.268 11.268 0 0 0-3.4 8.279 11.268 11.268 0 0 0 3.4 8.279 11.268 11.268 0 0 0 8.279 3.4h.618l.618 1.993q-.309.034-.618.052t-.619.02Zm11.337.309-5.5-5.5-1.2 3.642a.518.518 0 0 1-1-.034l-3.362-11.235a.511.511 0 0 1 .653-.653l11.23 3.367a.518.518 0 0 1 .034 1l-3.642 1.2 5.5 5.5a.5.5 0 0 1 0 .756l-1.958 1.958a.5.5 0 0 1-.756 0Z"
          />
        </g>
        <g data-name="Group 93066">
          <g filter="url(#e)" transform="translate(.001 -.002)">
            <ellipse
              cx="29"
              cy="28.5"
              fill="#e8f5f3"
              data-name="Ellipse 6387"
              rx="29"
              ry="28.5"
              transform="translate(257 472)"
            />
          </g>
          <path
            fill="#4bcbae"
            d="m285.528 503.025-3.723-2.064a.964.964 0 0 0-1.3.373.988.988 0 0 0-.095.778.938.938 0 0 0 .456.589l4.634 2.569a.969.969 0 0 0 1.24-.356l5.054-9.117a.919.919 0 0 0 .079-.726.971.971 0 0 0-.49-.594.938.938 0 0 0-.74-.075.988.988 0 0 0-.61.494Zm4.357 8.623a12.46 12.46 0 0 1-4.922.437 11.89 11.89 0 0 1-8.04-4.457 12.46 12.46 0 0 1-2.233-4.402 12.38 12.38 0 0 1-.428-4.893 11.989 11.989 0 0 1 1.424-4.466 12.247 12.247 0 0 1 7.427-5.836 12.186 12.186 0 0 1 15.194 8.423 12.247 12.247 0 0 1-1.012 9.396 11.989 11.989 0 0 1-3.032 3.574 12.38 12.38 0 0 1-4.378 2.224Z"
          />
        </g>
      </g>
    </svg>