 <svg
      xmlns="http://www.w3.org/2000/svg"
      width="20.09"
      height="23.377"
      viewBox="0 0 20.09 23.377"
    >
      <g fill="#E48722">
        <path
          d="M15.528 4.691h4.153L15.31.398v4.075a.218.218 0 0 0 .218.218Zm0 0"
          data-name="Path 89745"
        />
        <path
          d="M15.532 6.06a1.589 1.589 0 0 1-1.588-1.587V0H2.555A2.558 2.558 0 0 0 0 2.555v18.267a2.558 2.558 0 0 0 2.555 2.555h14.979a2.558 2.558 0 0 0 2.555-2.555V6.06Zm-1.564 11.655H5.145a.685.685 0 1 1 0-1.37h8.823a.685.685 0 1 1 0 1.37ZM4.46 14.291a.685.685 0 0 1 .685-.685h7.872a.685.685 0 1 1 0 1.37H5.145a.685.685 0 0 1-.685-.685Zm10.339-2.055H5.145a.685.685 0 0 1 0-1.37h9.654a.685.685 0 0 1 0 1.37Zm0 0"
          data-name="Path 89746"
        />
      </g>
    </svg>